<?xml version="1.0" standalone="no"?>
<!DOCTYPE svg PUBLIC "-//W3C//DTD SVG 20010904//EN"
 "http://www.w3.org/TR/2001/REC-SVG-20010904/DTD/svg10.dtd">
<svg version="1.0" xmlns="http://www.w3.org/2000/svg"
 width="773.000000pt" height="774.000000pt" viewBox="0 0 773.000000 774.000000"
 preserveAspectRatio="xMidYMid meet">

<g transform="translate(0.000000,774.000000) scale(0.100000,-0.100000)"
fill="#000000" stroke="none">
<path d="M3600 7460 c-662 -50 -1310 -279 -1823 -645 -55 -38 -118 -83 -141
-100 -165 -118 -475 -420 -633 -617 -449 -560 -716 -1212 -795 -1938 -19 -173
-16 -594 6 -770 54 -448 169 -832 367 -1229 186 -371 426 -700 721 -986 603
-586 1350 -935 2198 -1027 172 -18 594 -15 770 6 706 85 1337 348 1890 791
160 128 427 395 555 555 443 554 706 1183 791 1890 22 178 25 610 6 775 -54
472 -172 877 -372 1276 -33 65 -68 132 -78 148 l-19 31 -101 -174 c-56 -96
-102 -180 -102 -185 0 -6 14 -41 31 -78 154 -336 254 -712 289 -1088 14 -158
12 -478 -5 -635 -82 -770 -410 -1456 -955 -2000 -464 -464 -1027 -769 -1672
-905 -263 -56 -673 -80 -949 -56 -1126 100 -2117 756 -2646 1751 -181 342
-295 691 -354 1088 -27 179 -36 547 -20 744 94 1105 739 2090 1719 2628 299
164 638 284 989 350 361 67 837 67 1192 -1 655 -125 1223 -419 1709 -883 78
-75 248 -262 265 -291 4 -9 -39 -93 -119 -232 -70 -120 -151 -260 -181 -310
-129 -225 -347 -601 -427 -738 -29 -49 -139 -239 -244 -421 l-192 -330 0 -717
0 -717 185 0 185 0 0 708 0 708 69 120 c103 178 287 497 581 1004 145 250 330
570 411 710 l147 255 -36 50 c-69 97 -208 262 -322 379 -440 455 -1008 796
-1615 971 -186 53 -408 98 -595 120 -164 19 -522 27 -680 15z"/>
<path d="M2470 5266 c-592 -85 -1062 -531 -1192 -1129 -32 -147 -32 -427 0
-574 94 -435 372 -798 760 -992 198 -99 391 -143 637 -145 141 -1 295 15 295
31 0 10 -23 46 -114 177 l-94 137 -114 4 c-174 5 -328 46 -478 127 -481 258
-691 830 -494 1342 118 306 382 549 696 640 484 140 991 -64 1242 -499 95
-166 139 -337 139 -540 0 -179 -22 -270 -115 -495 -10 -24 -2 -39 87 -170 53
-80 101 -149 105 -153 10 -11 91 116 141 221 93 193 133 374 133 602 0 179
-17 286 -68 442 -137 418 -489 775 -899 912 -200 66 -465 91 -667 62z"/>
<path d="M4420 5272 c0 -4 102 -183 226 -398 124 -214 263 -453 308 -531 44
-79 83 -143 86 -143 4 1 189 318 198 341 2 6 -343 611 -409 717 -13 21 -19 22
-211 22 -109 0 -198 -4 -198 -8z"/>
<path d="M3038 3282 c-76 -48 -138 -90 -138 -94 0 -5 343 -519 525 -785 l56
-83 206 0 205 0 -17 28 c-10 15 -129 191 -264 392 -135 201 -283 423 -329 495
-46 71 -88 131 -95 132 -7 1 -74 -37 -149 -85z"/>
</g>
</svg>
